<svg width="25" height="25" viewBox="0 0 25 25" fill="none" xmlns="http://www.w3.org/2000/svg">
<mask id="mask0_33_7" style="mask-type:alpha" maskUnits="userSpaceOnUse" x="0" y="0" width="25" height="25">
<rect x="0.43631" y="0.786255" width="24" height="24" fill="#D9D9D9"/>
</mask>
<g mask="url(#mask0_33_7)">
<path d="M5.43631 22.7863C4.88631 22.7863 4.41548 22.5904 4.02381 22.1988C3.63214 21.8071 3.43631 21.3363 3.43631 20.7863V6.78625C3.43631 6.23625 3.63214 5.76542 4.02381 5.37375C4.41548 4.98209 4.88631 4.78625 5.43631 4.78625H6.43631V2.78625H8.43631V4.78625H16.4363V2.78625H18.4363V4.78625H19.4363C19.9863 4.78625 20.4571 4.98209 20.8488 5.37375C21.2405 5.76542 21.4363 6.23625 21.4363 6.78625V20.7863C21.4363 21.3363 21.2405 21.8071 20.8488 22.1988C20.4571 22.5904 19.9863 22.7863 19.4363 22.7863H5.43631ZM5.43631 20.7863H19.4363V10.7863H5.43631V20.7863ZM5.43631 8.78625H19.4363V6.78625H5.43631V8.78625ZM12.4363 14.7863C12.153 14.7863 11.9155 14.6904 11.7238 14.4988C11.5321 14.3071 11.4363 14.0696 11.4363 13.7863C11.4363 13.5029 11.5321 13.2654 11.7238 13.0738C11.9155 12.8821 12.153 12.7863 12.4363 12.7863C12.7196 12.7863 12.9571 12.8821 13.1488 13.0738C13.3405 13.2654 13.4363 13.5029 13.4363 13.7863C13.4363 14.0696 13.3405 14.3071 13.1488 14.4988C12.9571 14.6904 12.7196 14.7863 12.4363 14.7863ZM8.43631 14.7863C8.15298 14.7863 7.91548 14.6904 7.72381 14.4988C7.53214 14.3071 7.43631 14.0696 7.43631 13.7863C7.43631 13.5029 7.53214 13.2654 7.72381 13.0738C7.91548 12.8821 8.15298 12.7863 8.43631 12.7863C8.71964 12.7863 8.95714 12.8821 9.14881 13.0738C9.34048 13.2654 9.43631 13.5029 9.43631 13.7863C9.43631 14.0696 9.34048 14.3071 9.14881 14.4988C8.95714 14.6904 8.71964 14.7863 8.43631 14.7863ZM16.4363 14.7863C16.153 14.7863 15.9155 14.6904 15.7238 14.4988C15.5321 14.3071 15.4363 14.0696 15.4363 13.7863C15.4363 13.5029 15.5321 13.2654 15.7238 13.0738C15.9155 12.8821 16.153 12.7863 16.4363 12.7863C16.7196 12.7863 16.9571 12.8821 17.1488 13.0738C17.3405 13.2654 17.4363 13.5029 17.4363 13.7863C17.4363 14.0696 17.3405 14.3071 17.1488 14.4988C16.9571 14.6904 16.7196 14.7863 16.4363 14.7863ZM12.4363 18.7863C12.153 18.7863 11.9155 18.6904 11.7238 18.4988C11.5321 18.3071 11.4363 18.0696 11.4363 17.7863C11.4363 17.5029 11.5321 17.2654 11.7238 17.0738C11.9155 16.8821 12.153 16.7863 12.4363 16.7863C12.7196 16.7863 12.9571 16.8821 13.1488 17.0738C13.3405 17.2654 13.4363 17.5029 13.4363 17.7863C13.4363 18.0696 13.3405 18.3071 13.1488 18.4988C12.9571 18.6904 12.7196 18.7863 12.4363 18.7863ZM8.43631 18.7863C8.15298 18.7863 7.91548 18.6904 7.72381 18.4988C7.53214 18.3071 7.43631 18.0696 7.43631 17.7863C7.43631 17.5029 7.53214 17.2654 7.72381 17.0738C7.91548 16.8821 8.15298 16.7863 8.43631 16.7863C8.71964 16.7863 8.95714 16.8821 9.14881 17.0738C9.34048 17.2654 9.43631 17.5029 9.43631 17.7863C9.43631 18.0696 9.34048 18.3071 9.14881 18.4988C8.95714 18.6904 8.71964 18.7863 8.43631 18.7863ZM16.4363 18.7863C16.153 18.7863 15.9155 18.6904 15.7238 18.4988C15.5321 18.3071 15.4363 18.0696 15.4363 17.7863C15.4363 17.5029 15.5321 17.2654 15.7238 17.0738C15.9155 16.8821 16.153 16.7863 16.4363 16.7863C16.7196 16.7863 16.9571 16.8821 17.1488 17.0738C17.3405 17.2654 17.4363 17.5029 17.4363 17.7863C17.4363 18.0696 17.3405 18.3071 17.1488 18.4988C16.9571 18.6904 16.7196 18.7863 16.4363 18.7863Z" fill="#F8F6D6"/>
</g>
</svg>
