<svg width="79" height="31" viewBox="0 0 79 31" fill="none" xmlns="http://www.w3.org/2000/svg">
<g clip-path="url(#clip0_3_63)">
<path d="M23.89 3.82001C22.65 4.51001 22.85 6.47001 23.96 7.07001C25.07 7.72001 26.62 7.07001 27.12 5.97001C27.65 4.84001 27.33 3.42001 26.5 2.52001C24.7 0.560008 21.77 0.700008 19.3 0.990008C15.62 1.40001 11.48 3.09001 10.37 6.94001C8.59001 12.9 15.59 14.59 20.18 14.96C30.77 16.09 41.13 12.78 51.11 9.50001C56.22 7.96001 61.32 6.38001 66.44 4.88001C70.03 3.84001 75.58 2.30001 78.1 6.21001C78.79 7.44001 79.08 9.03001 78.65 10.39C77.86 13.04 75.08 15.32 72.23 14.65C70.9 14.3 69.64 13.11 69.74 11.64C69.85 10.29 71.19 8.99001 72.57 9.38001C71.2 9.08001 70 10.41 69.98 11.65C69.96 12.95 71.12 13.98 72.33 14.24C73.56 14.52 74.87 14.03 75.86 13.27C77.61 11.94 78.54 9.56001 77.74 7.47001C75.94 3.15001 70.24 4.91001 66.79 6.02001C61.73 7.69001 56.64 9.28001 51.57 10.9C40.26 14.76 28.02 18.53 15.98 15.72C11.57 14.87 7.49001 11.46 9.22001 6.57001C10.55 2.35001 15.12 0.440008 19.2 0.120008C21.85 -0.149992 25.07 -0.129992 26.94 2.14001C27.85 3.24001 28.15 4.87001 27.48 6.16001C26.81 7.44001 25.06 8.06001 23.83 7.28001C22.62 6.49001 22.6 4.44001 23.89 3.83001V3.82001Z" fill="#353535"/>
<path d="M54.69 26.36C55.95 25.72 55.84 23.76 54.76 23.1C51.87 21.69 50.16 25.45 52.03 27.53C55.81 31.69 66.55 28.94 68.45 23.85C69.27 21.59 67.97 19.01 66.06 17.56C64.09 16.07 61.48 15.55 58.9 15.3C48.49 14.17 37.69 16.88 27.69 19.62C22.53 20.95 17.38 22.32 12.21 23.61C9.58999 24.24 6.83999 25.16 4.08999 24.44C-0.980007 23.25 -1.24001 17.18 2.78999 14.5C5.05999 12.76 9.16999 13.45 9.19999 16.79C9.08999 18.18 7.60999 19.36 6.28999 18.89C7.62999 19.28 8.94999 18.02 8.95999 16.77C8.80999 13.79 5.10999 13.32 3.12999 14.98C-0.140007 17.35 -0.110007 22.59 4.32999 23.48C6.76999 24.05 9.33999 23.13 11.91 22.44C17.04 20.98 22.19 19.6 27.32 18.18C37.51 15.3 48.4 12.58 59.05 13.83C61.72 14.14 64.57 14.7 66.89 16.48C70.73 19.41 71.07 24.78 66.89 27.58C62.97 30.4 55.07 32.05 51.56 27.88C49.51 25.38 51.69 21.15 54.89 22.9C56.07 23.74 55.98 25.79 54.68 26.35L54.69 26.36Z" fill="#353535"/>
</g>
<defs>
<clipPath id="clip0_3_63">
<rect width="78.85" height="30.41" fill="white"/>
</clipPath>
</defs>
</svg>
