<svg width="165" height="79" viewBox="0 0 165 79" fill="none" xmlns="http://www.w3.org/2000/svg">
<g clip-path="url(#clip0_2_50)">
<path d="M82.4544 53.0785C67.8207 53.0785 55.9151 41.173 55.9151 26.5393C55.9151 11.9056 67.8207 0 82.4544 0C97.0881 0 108.994 11.9056 108.994 26.5393C108.994 41.173 97.0881 53.0785 82.4544 53.0785ZM82.4544 0.890349C68.3115 0.890349 56.8112 12.3964 56.8112 26.5336C56.8112 40.6707 68.3172 52.1825 82.4544 52.1825C96.5915 52.1825 108.098 40.6764 108.098 26.5336C108.098 12.3907 96.5915 0.896057 82.4544 0.896057V0.890349Z" fill="#F8F6D6"/>
<path d="M82.4544 49.7968C69.6299 49.7968 59.1968 39.3637 59.1968 26.5393C59.1968 13.7148 69.6299 3.28174 82.4544 3.28174C95.2788 3.28174 105.712 13.7148 105.712 26.5393C105.712 39.3637 95.2788 49.7968 82.4544 49.7968ZM82.4544 4.17209C70.1207 4.17209 60.0872 14.2056 60.0872 26.5393C60.0872 38.8729 70.1207 48.9064 82.4544 48.9064C94.788 48.9064 104.822 38.8729 104.822 26.5393C104.822 14.2056 94.7823 4.1778 82.4544 4.1778V4.17209Z" fill="#F8F6D6"/>
<path d="M41.7894 24.3533C42.5256 24.7015 42.5142 25.8772 41.8236 26.3224C41.1159 26.7676 40.1228 26.4137 39.7404 25.6832C39.358 24.9469 39.5292 24.0166 40.0486 23.3888C41.1159 22.0989 42.9537 22.0818 44.4661 22.2359C46.7947 22.4185 49.4087 23.5086 50.1621 25.9229C51.138 28.7138 48.8323 30.6543 46.3039 31.1451C39.4322 32.7489 32.4464 30.5915 25.9914 28.3942C23.0977 27.4639 20.1927 26.5621 17.3048 25.609C15.427 25.0325 12.659 24.0794 11.2835 25.9685C10.941 26.5564 10.7755 27.304 10.9639 27.9832C11.2892 29.3245 12.7046 30.5858 14.1429 30.2947C14.8335 30.1463 15.4955 29.5585 15.4841 28.8165C15.4727 28.1088 14.7878 27.3497 14.0059 27.5209C14.7935 27.2983 15.5583 28.0403 15.6211 28.8108C15.6782 29.6441 14.959 30.3232 14.2 30.5287C12.5734 30.9111 10.9867 29.6155 10.5358 28.0974C10.2904 27.3212 10.4559 26.4137 10.8497 25.7117C12.2937 23.4801 15.4613 24.359 17.5045 24.9526C20.4267 25.8087 23.3374 26.7105 26.2539 27.5894C31.9499 29.4614 37.8627 31.3506 43.9068 30.7056C46.5208 30.4888 50.5216 29.5242 49.5057 26.1283C48.8722 23.9367 46.5151 22.9665 44.409 22.7324C43.005 22.5612 41.3271 22.4813 40.2997 23.6C39.826 24.1136 39.6434 24.9241 39.9459 25.569C40.2313 26.2025 41.1159 26.5678 41.7494 26.1968C42.3772 25.8487 42.4971 24.7357 41.7894 24.3419V24.3533Z" fill="#F8F6D6"/>
<path d="M24.2107 37.2177C23.4687 36.8981 23.4231 35.7281 24.0908 35.2487C25.9286 34.2499 27.1557 36.6755 25.9914 38.091C23.697 40.8876 16.968 39.2724 15.7124 36.0249C15.0789 34.3983 15.9407 32.5891 17.242 31.5846C18.5661 30.563 20.1927 30.2433 21.7166 30.0721C27.7949 29.3587 34.0159 30.9111 39.826 32.5548C42.7596 33.3653 45.6989 34.1529 48.6211 34.9862C50.0822 35.38 51.549 35.9051 52.9473 35.5797C55.4699 35.0775 55.5156 32.0811 53.6379 30.7285C52.5021 29.781 50.4075 30.0436 50.3105 31.7501C50.3219 32.4578 51.0696 33.1826 51.8344 32.9601C51.081 33.2283 50.2363 32.5548 50.1735 31.7615C50.1906 29.8552 52.5306 29.4671 53.8319 30.4545C56.1206 31.9784 56.0007 35.4428 53.09 36.1276C51.5204 36.5329 49.9509 36.0078 48.4556 35.6539C45.5049 34.9177 42.5656 34.1358 39.6206 33.3767C33.9075 31.8129 27.7493 30.2662 21.8079 30.9111C20.3354 31.0538 18.8515 31.3563 17.7214 32.201C15.8665 33.5936 15.6611 36.0477 17.6187 37.4232C19.622 38.9528 23.7998 39.9402 25.7289 37.8855C26.8018 36.6984 25.8088 34.5581 24.1707 35.3571C23.5543 35.7281 23.4916 36.8468 24.2107 37.2177Z" fill="#F8F6D6"/>
<path d="M123.051 24.3533C122.343 24.7471 122.457 25.8658 123.091 26.2082C123.724 26.5792 124.609 26.2082 124.894 25.5804C125.197 24.9355 125.014 24.125 124.541 23.6114C123.513 22.4927 121.841 22.5726 120.431 22.7382C118.331 22.9722 115.968 23.9367 115.335 26.134C114.319 29.5356 118.314 30.5002 120.933 30.7113C126.978 31.3563 132.89 29.4671 138.586 27.5951C141.503 26.7162 144.414 25.8144 147.336 24.9583C149.385 24.3648 152.552 23.4858 153.991 25.7174C154.384 26.4194 154.55 27.3269 154.304 28.1031C153.854 29.6155 152.267 30.9168 150.64 30.5344C149.881 30.3347 149.162 29.6555 149.219 28.8165C149.282 28.046 150.047 27.304 150.834 27.5266C150.052 27.3554 149.368 28.1145 149.356 28.8222C149.345 29.5642 150.007 30.152 150.697 30.3004C151.399 30.4602 152.147 30.1806 152.712 29.7468C153.711 28.9877 154.242 27.6294 153.785 26.4365C152.758 23.9709 149.505 24.9754 147.536 25.609C144.648 26.5621 141.743 27.4696 138.849 28.3942C132.394 30.5972 125.408 32.7489 118.536 31.1451C116.019 30.66 113.691 28.7138 114.678 25.9229C115.432 23.5086 118.046 22.4185 120.374 22.2359C121.887 22.0818 123.724 22.0932 124.792 23.3888C125.311 24.0166 125.482 24.9469 125.1 25.6832C124.717 26.4137 123.719 26.7676 123.017 26.3224C122.326 25.8715 122.315 24.7015 123.051 24.3533Z" fill="#F8F6D6"/>
<path d="M140.63 37.2177C141.349 36.8525 141.286 35.7338 140.67 35.3571C139.02 34.5524 138.044 36.6984 139.111 37.8855C141.269 40.2598 147.399 38.6902 148.483 35.7852C148.951 34.4953 148.209 33.0228 147.119 32.1953C145.995 31.3449 144.505 31.0481 143.032 30.9054C137.091 30.2605 130.927 31.8072 125.22 33.371C122.275 34.1301 119.335 34.912 116.385 35.6482C114.889 36.0078 113.32 36.5329 111.75 36.1219C108.857 35.4428 108.708 31.9784 111.008 30.4488C112.304 29.4557 114.65 29.8495 114.667 31.7558C114.604 32.5491 113.759 33.2226 113.006 32.9543C113.771 33.1769 114.524 32.4578 114.53 31.7444C114.444 30.0436 112.332 29.7753 111.202 30.7228C109.336 32.0697 109.353 35.0661 111.893 35.5683C113.286 35.8936 114.752 35.3686 116.219 34.9747C119.147 34.1415 122.086 33.3539 125.014 32.5434C130.83 30.8997 137.045 29.3473 143.124 30.0607C144.648 30.2376 146.274 30.5572 147.598 31.5732C149.79 33.2454 149.984 36.3103 147.598 37.9083C145.361 39.5178 140.852 40.4595 138.849 38.0796C137.679 36.6527 138.923 34.2385 140.749 35.2373C141.423 35.7167 141.372 36.8867 140.63 37.2063V37.2177Z" fill="#F8F6D6"/>
<path d="M0 77.8485C52.8502 77.3577 112.144 77.3519 165 77.8485C112.15 78.345 52.8559 78.3393 0 77.8485Z" fill="#F8F6D6"/>
<path d="M0 54.6766C52.8502 54.1857 112.144 54.18 165 54.6766C112.15 55.1731 52.8559 55.1674 0 54.6766Z" fill="#F8F6D6"/>
<path d="M74.9606 23.0349C75.069 22.4927 75.4857 22.2188 75.9023 22.2188C76.4673 22.2188 77.0495 22.7153 76.8326 23.7427C76.8326 23.7712 76.65 24.5988 77.3862 24.5988C77.7458 24.5988 77.9969 24.3762 77.9969 23.9481V15.0846C77.9969 14.7535 77.7629 14.5195 77.4319 14.5195H77.2778V14.3654H80.491V14.5195H80.3255C79.9945 14.5195 79.7605 14.7535 79.7605 15.0846V22.5042C79.7605 24.3876 78.5962 24.7472 77.4205 24.7472C75.6911 24.7472 74.7779 23.9709 74.972 23.0292L74.9606 23.0349Z" fill="#F8F6D6"/>
<path d="M81.2501 19.485C81.2501 16.2603 82.9795 14.2228 85.7932 14.2228C86.695 14.2228 87.357 14.4282 87.9277 14.8049C88.1104 14.9134 88.2588 14.9876 88.3729 14.9876C88.5784 14.9876 88.6754 14.8049 88.6754 14.4625V14.3654H88.8295V17.5102H88.6754V17.1221C88.6754 15.2558 87.2771 14.3654 85.7818 14.3654C84.0524 14.3654 83.0137 15.5982 83.0137 19.4907C83.0137 22.7039 84.178 24.4504 85.9245 24.4504C87.1858 24.4504 88.7325 23.5086 89.1377 21.6652L89.2633 21.7051C88.9322 23.3374 87.6024 24.7529 85.5078 24.7529C82.9852 24.7529 81.2558 22.7039 81.2558 19.4907L81.2501 19.485Z" fill="#F8F6D6"/>
<path d="M75.0405 28.2229H79.6178C80.8791 28.2229 81.7295 29.0619 81.7295 30.3689C81.7295 31.6759 80.8791 32.4806 79.6178 32.4806H77.0723V36.0249C77.0723 36.3103 77.2663 36.4929 77.5517 36.4929H77.6773V36.6185H75.0405V36.4929H75.1774C75.4514 36.4929 75.6454 36.3103 75.6454 36.0249V28.8108C75.6454 28.5368 75.4514 28.3428 75.1774 28.3428H75.0405V28.2172V28.2229ZM77.0723 32.3608H78.2994C79.4922 32.3608 80.2855 31.5789 80.2855 30.3404C80.2855 29.1019 79.4922 28.3542 78.2994 28.3542H77.5517C77.2663 28.3542 77.0723 28.5483 77.0723 28.8222V32.3665V32.3608Z" fill="#F8F6D6"/>
<path d="M82.1975 28.3485V28.2229H84.8343V28.3485H84.7087C84.4234 28.3485 84.2293 28.5425 84.2293 28.8165V32.8288C84.4348 32.8174 84.6403 32.7831 84.8286 32.7489C85.3993 32.6233 85.9415 32.4064 86.5123 32.2695C86.7063 32.2124 86.9118 32.1781 87.1173 32.1553V28.8165C87.1173 28.5425 86.9232 28.3485 86.6493 28.3485H86.5123V28.2229H89.1491V28.3485H89.0121C88.7382 28.3485 88.5441 28.5425 88.5441 28.8165V36.0306C88.5441 36.316 88.7382 36.4986 89.0121 36.4986H89.1491V36.6242H86.5123V36.4986H86.6493C86.9232 36.4986 87.1173 36.316 87.1173 36.0306V32.2809C86.9118 32.3037 86.7063 32.3379 86.5123 32.395C85.9415 32.532 85.3993 32.7489 84.8286 32.863C84.6346 32.9087 84.4291 32.9315 84.2293 32.9429V36.0363C84.2293 36.3217 84.4234 36.5043 84.7087 36.5043H84.8343V36.6299H82.1975V36.5043H82.3345C82.6084 36.5043 82.8025 36.3217 82.8025 36.0363V28.8222C82.8025 28.5483 82.6084 28.3542 82.3345 28.3542H82.1975V28.3485Z" fill="#F8F6D6"/>
<path d="M5.98703 70.7371C6.12401 70.0694 6.63767 69.7269 7.15133 69.7269C7.85334 69.7269 8.57247 70.3433 8.29851 71.6103C8.29851 71.6446 8.07593 72.6719 8.9834 72.6719C9.42857 72.6719 9.73677 72.398 9.73677 71.8672V60.909C9.73677 60.4981 9.44569 60.207 9.03476 60.207H8.84642V60.0187H12.8187V60.207H12.6133C12.2024 60.207 11.9113 60.4981 11.9113 60.909V70.0865C11.9113 72.4151 10.473 72.8603 9.01764 72.8603C6.87738 72.8603 5.74732 71.9014 5.98703 70.7371Z" fill="#F8F6D6"/>
<path d="M13.7604 66.3539C13.7604 62.3644 15.9007 59.8475 19.3765 59.8475C20.4894 59.8475 21.3113 60.1043 22.0133 60.5666C22.2359 60.7036 22.4242 60.7892 22.5612 60.7892C22.818 60.7892 22.9379 60.5666 22.9379 60.1385V60.0187H23.1262V63.9054H22.9379V63.426C22.9379 61.1145 21.2086 60.0187 19.3594 60.0187C17.2191 60.0187 15.9349 61.5425 15.9349 66.3539C15.9349 70.3262 17.3732 72.4836 19.5306 72.4836C21.0887 72.4836 23.0064 71.3193 23.5029 69.042L23.657 69.0934C23.2461 71.1138 21.6024 72.8603 19.0169 72.8603C15.9007 72.8603 13.7604 70.3262 13.7604 66.3539Z" fill="#F8F6D6"/>
<path d="M28.6567 60.0187H35.5569C37.4574 60.0187 38.7416 61.2857 38.7416 63.2548C38.7416 65.2238 37.4574 66.4395 35.5569 66.4395H31.7215V71.7816C31.7215 72.2096 32.0126 72.4836 32.4407 72.4836H32.629V72.6719H28.6567V72.4836H28.8621C29.2731 72.4836 29.5641 72.2096 29.5641 71.7816V60.909C29.5641 60.4981 29.2731 60.207 28.8621 60.207H28.6567V60.0187ZM31.7215 66.2511H33.5707C35.3685 66.2511 36.5671 65.0697 36.5671 63.2034C36.5671 61.3371 35.3685 60.207 33.5707 60.207H32.4407C32.0126 60.207 31.7215 60.4981 31.7215 60.909V66.2511Z" fill="#F8F6D6"/>
<path d="M39.6491 72.4836C40.06 72.4836 40.3511 72.2096 40.3511 71.7816V60.909C40.3511 60.4981 40.06 60.207 39.6491 60.207H39.4436V60.0187H46.3438C48.2444 60.0187 49.5285 61.2857 49.5285 63.2548C49.5285 65.2238 48.2444 66.4395 46.3438 66.4395H45.7617L48.8436 71.7816C49.0662 72.2096 49.5285 72.4836 49.9395 72.4836H50.1449V72.6719H46.8917C46.8232 72.6719 46.8061 72.6719 46.7034 72.4836C46.6349 72.3637 46.5322 72.1583 46.3609 71.8158C46.3609 71.8158 46.3609 71.7987 46.3438 71.7816L43.279 66.4395H42.5085V71.7816C42.5085 72.2096 42.7995 72.4836 43.2276 72.4836H43.4159V72.6719H39.4436V72.4836H39.6491ZM42.5085 66.2511H44.3576C46.1555 66.2511 47.354 65.0697 47.354 63.2034C47.354 61.3371 46.1555 60.207 44.3576 60.207H43.2276C42.7995 60.207 42.5085 60.4981 42.5085 60.909V66.2511Z" fill="#F8F6D6"/>
<path d="M50.9839 72.4836C51.3948 72.4836 51.6859 72.2096 51.6859 71.7816V60.909C51.6859 60.4981 51.3948 60.207 50.9839 60.207H50.7784V60.0187H58.9114L59.271 62.5527H59.0827L59.0484 62.2617C58.8943 61.0118 57.9012 60.207 56.6342 60.207H54.5624C54.1344 60.207 53.8433 60.4981 53.8433 60.909V66.2511H56.8568C57.2677 66.2511 57.5588 65.96 57.5588 65.5491V65.3608H57.73V67.3469H57.5588V67.1415C57.5588 66.7305 57.2677 66.4395 56.8568 66.4395H53.8433V71.7816C53.8433 72.2096 54.1344 72.4836 54.5624 72.4836H56.6342C57.9012 72.4836 58.8943 71.6788 59.0484 70.4289L59.0827 70.1378H59.271L58.9114 72.6719H50.7784V72.4836H50.9839Z" fill="#F8F6D6"/>
<path d="M64.4762 59.8475C65.435 59.8475 66.6507 60.0358 67.4725 60.5152C67.6437 60.618 67.7807 60.6693 67.8835 60.6693C68.0547 60.6693 68.1232 60.5323 68.1232 60.2241V60.0187H68.2944V63.1007H68.1232V62.313C68.1232 61.5939 67.9177 61.0118 67.5924 60.7892C66.839 60.2413 65.4692 60.0187 64.7159 60.0187C63.192 60.0187 62.2674 60.9775 62.2674 62.1418C62.2674 65.2923 69.2019 65.1896 69.2019 69.2304C69.2019 71.5932 66.8561 72.8774 64.2536 72.8774C63.0208 72.8774 62.1133 72.5863 61.514 72.2439C61.3086 72.124 61.1374 72.0726 61.0175 72.0726C60.812 72.0726 60.7093 72.2439 60.7093 72.6205V72.6719H60.5381V69.6071H60.7093V70.2063C60.7093 70.9768 61.0004 71.6788 61.4113 71.9699C62.0619 72.398 63.0037 72.6719 63.9625 72.6719C65.7261 72.6719 67.113 71.7302 67.113 70.0865C67.113 66.4566 60.3497 67.1415 60.3497 63.0835C60.3497 61.0118 62.0619 59.8475 64.4762 59.8475Z" fill="#F8F6D6"/>
<path d="M69.647 62.5527L70.0066 60.0187H79.0471L79.4066 62.5527H79.2183L79.184 62.2617C79.0299 61.0118 78.0369 60.207 76.7698 60.207H76.3075C75.8966 60.207 75.6055 60.4981 75.6055 60.909V71.7816C75.6055 72.2096 75.8966 72.4836 76.3075 72.4836H76.513V72.6719H72.5407V72.4836H72.729C73.1571 72.4836 73.4481 72.2096 73.4481 71.7816V60.909C73.4481 60.4981 73.1571 60.207 72.729 60.207H72.2838C71.0168 60.207 70.0237 61.0118 69.8696 62.2617L69.8354 62.5527H69.647Z" fill="#F8F6D6"/>
<path d="M79.9031 60.0187H83.8755V60.207H83.6871C83.2591 60.207 82.968 60.4981 82.968 60.909V71.7816C82.968 72.2096 83.2591 72.4836 83.6871 72.4836H83.8755V72.6719H79.9031V72.4836H80.1086C80.5195 72.4836 80.8106 72.2096 80.8106 71.7816V60.909C80.8106 60.4981 80.5195 60.207 80.1086 60.207H79.9031V60.0187Z" fill="#F8F6D6"/>
<path d="M90.4161 59.8475C91.529 59.8475 92.3509 60.1043 93.0529 60.5666C93.2755 60.7036 93.4638 60.7892 93.6008 60.7892C93.8576 60.7892 93.9775 60.5666 93.9775 60.1385V60.0187H94.1658V63.9054H93.9775V63.426C93.9775 61.1145 92.2482 60.0187 90.399 60.0187C88.2587 60.0187 86.9746 61.5425 86.9746 66.3539C86.9746 70.3262 88.4128 72.4836 90.4846 72.4836C91.8544 72.4836 92.5392 71.559 92.5392 70.1036V66.1655H89.0977V65.9943H94.6966V70.0522C94.6966 71.6446 92.6591 72.8603 90.3134 72.8603C86.9403 72.8603 84.8 70.3262 84.8 66.3539C84.8 62.3815 86.9403 59.8475 90.4161 59.8475Z" fill="#F8F6D6"/>
<path d="M95.9979 72.4836C96.4089 72.4836 96.6999 72.2096 96.6999 71.7816V60.909C96.6999 60.4981 96.4089 60.207 95.9979 60.207H95.7925V60.0187H103.925L104.285 62.5527H104.097L104.062 62.2617C103.908 61.0118 102.915 60.207 101.648 60.207H99.5765C99.1484 60.207 98.8573 60.4981 98.8573 60.909V66.2511H101.871C102.282 66.2511 102.573 65.96 102.573 65.5491V65.3608H102.744V67.3469H102.573V67.1415C102.573 66.7305 102.282 66.4395 101.871 66.4395H98.8573V71.7816C98.8573 72.2096 99.1484 72.4836 99.5765 72.4836H101.648C102.915 72.4836 103.908 71.6788 104.062 70.4289L104.097 70.1378H104.285L103.925 72.6719H95.7925V72.4836H95.9979Z" fill="#F8F6D6"/>
<path d="M109.336 60.207V60.0187H113.308V60.207H113.12C112.692 60.207 112.401 60.4981 112.401 60.909V66.9531C112.709 66.936 113.017 66.8846 113.308 66.8333C114.164 66.6449 114.986 66.3196 115.842 66.1141C116.134 66.0285 116.442 65.9772 116.75 65.9429V60.909C116.75 60.4981 116.459 60.207 116.048 60.207H115.842V60.0187H119.815V60.207H119.609C119.198 60.207 118.907 60.4981 118.907 60.909V71.7816C118.907 72.2096 119.198 72.4836 119.609 72.4836H119.815V72.6719H115.842V72.4836H116.048C116.459 72.4836 116.75 72.2096 116.75 71.7816V66.1313C116.442 66.1655 116.134 66.2169 115.842 66.3025C114.986 66.508 114.164 66.8333 113.308 67.0045C113.017 67.073 112.709 67.1072 112.401 67.1244V71.7816C112.401 72.2096 112.692 72.4836 113.12 72.4836H113.308V72.6719H109.336V72.4836H109.542C109.952 72.4836 110.244 72.2096 110.244 71.7816V60.909C110.244 60.4981 109.952 60.207 109.542 60.207H109.336Z" fill="#F8F6D6"/>
<path d="M126.253 59.8475C129.626 59.8475 131.766 62.3644 131.766 66.3539C131.766 70.3433 129.626 72.8603 126.253 72.8603C122.88 72.8603 120.739 70.3262 120.739 66.3539C120.739 62.3815 122.88 59.8475 126.253 59.8475ZM126.253 72.6719C128.307 72.6719 129.592 71.148 129.592 66.3539C129.592 61.5597 128.307 60.0187 126.253 60.0187C124.198 60.0187 122.914 61.5425 122.914 66.3539C122.914 71.1652 124.198 72.6719 126.253 72.6719Z" fill="#F8F6D6"/>
<path d="M132.314 62.5527L132.673 60.0187H141.714L142.073 62.5527H141.885L141.851 62.2617C141.697 61.0118 140.704 60.207 139.437 60.207H138.974C138.563 60.207 138.272 60.4981 138.272 60.909V71.7816C138.272 72.2096 138.563 72.4836 138.974 72.4836H139.18V72.6719H135.208V72.4836H135.396C135.824 72.4836 136.115 72.2096 136.115 71.7816V60.909C136.115 60.4981 135.824 60.207 135.396 60.207H134.951C133.684 60.207 132.691 61.0118 132.536 62.2617L132.502 62.5527H132.314Z" fill="#F8F6D6"/>
<path d="M142.776 72.4836C143.186 72.4836 143.478 72.2096 143.478 71.7816V60.909C143.478 60.4981 143.186 60.207 142.776 60.207H142.57V60.0187H150.703L151.063 62.5527H150.874L150.84 62.2617C150.686 61.0118 149.693 60.207 148.426 60.207H146.354C145.926 60.207 145.635 60.4981 145.635 60.909V66.2511H148.648C149.059 66.2511 149.35 65.96 149.35 65.5491V65.3608H149.522V67.3469H149.35V67.1415C149.35 66.7305 149.059 66.4395 148.648 66.4395H145.635V71.7816C145.635 72.2096 145.926 72.4836 146.354 72.4836H148.426C149.693 72.4836 150.686 71.6788 150.84 70.4289L150.874 70.1378H151.063L150.703 72.6719H142.57V72.4836H142.776Z" fill="#F8F6D6"/>
<path d="M155.942 60.0187V60.207H155.754C155.326 60.207 155.035 60.4981 155.035 60.909V71.7816C155.035 72.2096 155.326 72.4836 155.754 72.4836H157.826C159.093 72.4836 160.086 71.6788 160.24 70.4289L160.274 70.1378H160.463L160.103 72.6719H151.97V72.4836H152.176C152.586 72.4836 152.878 72.2096 152.878 71.7816V60.909C152.878 60.4981 152.586 60.207 152.176 60.207H151.97V60.0187H155.942Z" fill="#F8F6D6"/>
</g>
<defs>
<clipPath id="clip0_2_50">
<rect width="165" height="78.2195" fill="white"/>
</clipPath>
</defs>
</svg>
