<svg width="25" height="25" viewBox="0 0 25 25" fill="none" xmlns="http://www.w3.org/2000/svg">
<mask id="mask0_105_7" style="mask-type:alpha" maskUnits="userSpaceOnUse" x="0" y="0" width="25" height="25">
<rect x="0.52478" y="0.0125732" width="24" height="24" fill="#D9D9D9"/>
</mask>
<g mask="url(#mask0_105_7)">
<path d="M4.52478 15.0126C3.69145 15.0126 2.98311 14.7209 2.39978 14.1376C1.81645 13.5542 1.52478 12.8459 1.52478 12.0126C1.52478 11.1792 1.81645 10.4709 2.39978 9.88757C2.98311 9.30424 3.69145 9.01257 4.52478 9.01257V7.01257C4.52478 6.46257 4.72061 5.99174 5.11228 5.60007C5.50395 5.20841 5.97478 5.01257 6.52478 5.01257H9.52478C9.52478 4.17924 9.81645 3.47091 10.3998 2.88757C10.9831 2.30424 11.6914 2.01257 12.5248 2.01257C13.3581 2.01257 14.0664 2.30424 14.6498 2.88757C15.2331 3.47091 15.5248 4.17924 15.5248 5.01257H18.5248C19.0748 5.01257 19.5456 5.20841 19.9373 5.60007C20.3289 5.99174 20.5248 6.46257 20.5248 7.01257V9.01257C21.3581 9.01257 22.0664 9.30424 22.6498 9.88757C23.2331 10.4709 23.5248 11.1792 23.5248 12.0126C23.5248 12.8459 23.2331 13.5542 22.6498 14.1376C22.0664 14.7209 21.3581 15.0126 20.5248 15.0126V19.0126C20.5248 19.5626 20.3289 20.0334 19.9373 20.4251C19.5456 20.8167 19.0748 21.0126 18.5248 21.0126H6.52478C5.97478 21.0126 5.50395 20.8167 5.11228 20.4251C4.72061 20.0334 4.52478 19.5626 4.52478 19.0126V15.0126ZM9.52478 13.0126C9.94145 13.0126 10.2956 12.8667 10.5873 12.5751C10.8789 12.2834 11.0248 11.9292 11.0248 11.5126C11.0248 11.0959 10.8789 10.7417 10.5873 10.4501C10.2956 10.1584 9.94145 10.0126 9.52478 10.0126C9.10811 10.0126 8.75395 10.1584 8.46228 10.4501C8.17061 10.7417 8.02478 11.0959 8.02478 11.5126C8.02478 11.9292 8.17061 12.2834 8.46228 12.5751C8.75395 12.8667 9.10811 13.0126 9.52478 13.0126ZM15.5248 13.0126C15.9414 13.0126 16.2956 12.8667 16.5873 12.5751C16.8789 12.2834 17.0248 11.9292 17.0248 11.5126C17.0248 11.0959 16.8789 10.7417 16.5873 10.4501C16.2956 10.1584 15.9414 10.0126 15.5248 10.0126C15.1081 10.0126 14.7539 10.1584 14.4623 10.4501C14.1706 10.7417 14.0248 11.0959 14.0248 11.5126C14.0248 11.9292 14.1706 12.2834 14.4623 12.5751C14.7539 12.8667 15.1081 13.0126 15.5248 13.0126ZM8.52478 17.0126H16.5248V15.0126H8.52478V17.0126ZM6.52478 19.0126H18.5248V7.01257H6.52478V19.0126Z" fill="#353535"/>
</g>
</svg>
